<svg xmlns="http://www.w3.org/2000/svg" viewBox="0 0 1024 1024" width="1024" height="1024" role="img" aria-label="TAHAI Web Services"><defs><linearGradient id="royal" x1="0" y1="0" x2="1" y2="1"><stop stop-color="#af87ff"/><stop offset="1" stop-color="#6028d2"/></linearGradient></defs><path fill="url(#royal)" fill-rule="evenodd" d="M565.42,485.17Q565.00,484.00 564.12,483.12L561.88,480.88Q561.00,480.00 559.76,479.93L545.60,479.09Q544.00,479.00 544.52,480.51L558.52,521.60Q559.00,523.00 558.34,524.32L556.66,527.68Q556.00,529.00 554.68,529.66L440.43,586.29Q439.00,587.00 437.40,587.12L399.60,589.88Q398.00,590.00 396.73,590.98L386.27,599.02Q385.00,600.00 384.89,601.60L384.11,612.40Q384.00,614.00 385.25,615.00L392.75,621.00Q394.00,622.00 395.54,622.44L406.46,625.56Q408.00,626.00 409.58,625.75L431.42,622.25Q433.00,622.00 434.33,621.11L440.67,616.89Q442.00,616.00 442.75,614.59L449.25,602.41Q450.00,601.00 451.43,600.28L578.61,536.70Q580.00,536.00 580.22,534.46L580.78,530.54Q581.00,529.00 580.48,527.53Z M992.78,467.54Q993.00,466.00 991.72,465.11L981.32,457.91Q980.00,457.00 978.40,457.00L957.60,457.00Q956.00,457.00 954.77,458.02L951.23,460.98Q950.00,462.00 950.20,463.59L950.80,468.41Q951.00,470.00 949.62,470.80L871.38,516.20Q870.00,517.00 868.40,517.00L862.60,517.00Q861.00,517.00 859.46,516.56L665.54,461.44Q664.00,461.00 664.16,462.59L664.84,469.41Q665.00,471.00 665.78,472.40L720.22,570.60Q721.00,572.00 721.65,573.46L735.35,604.54Q736.00,606.00 734.65,606.86L603.35,690.14Q602.00,691.00 600.41,691.18L567.59,694.82Q566.00,695.00 564.57,695.72L557.43,699.28Q556.00,700.00 554.97,701.22L546.03,711.78Q545.00,713.00 545.11,714.60L545.89,725.40Q546.00,727.00 547.18,728.08L556.82,736.92Q558.00,738.00 559.52,738.51L571.48,742.49Q573.00,743.00 574.58,742.74L601.42,738.26Q603.00,738.00 604.17,736.91L615.83,726.09Q617.00,725.00 617.09,723.40L617.91,708.60Q618.00,707.00 619.35,706.14L765.65,612.86Q767.00,612.00 766.49,610.48L762.51,598.52Q762.00,597.00 761.22,595.60L705.58,496.03Q705.00,495.00 705.44,493.90L706.56,491.10Q707.00,490.00 708.14,490.31L870.45,533.59Q872.00,534.00 873.38,533.20L965.62,479.80Q967.00,479.00 968.60,478.92L984.40,478.08Q986.00,478.00 987.23,476.98L990.80,474.00Q992.00,473.00 992.22,471.46Z M485.10,409.34Q484.00,410.00 484.57,411.15L495.28,432.57Q496.00,434.00 497.18,435.08L506.82,443.92Q508.00,445.00 509.39,445.80L539.61,463.20Q541.00,464.00 542.54,464.43L564.46,470.57Q566.00,471.00 566.00,469.40L566.00,459.60Q566.00,458.00 564.60,457.23L525.40,435.77Q524.00,435.00 522.87,433.87L511.13,422.13Q510.00,421.00 509.38,419.52L505.62,410.48Q505.00,409.00 503.41,408.80L490.27,407.16Q489.00,407.00 487.90,407.66Z M958.49,406.52Q959.00,405.00 957.65,404.13L946.35,396.87Q945.00,396.00 943.40,396.08L926.24,396.94Q925.00,397.00 924.12,397.88L921.88,400.12Q921.00,401.00 921.00,402.24L921.00,409.40Q921.00,411.00 919.59,411.76L829.41,460.24Q828.00,461.00 826.42,460.77L802.58,457.23Q801.00,457.00 799.46,456.55L727.08,435.32Q726.00,435.00 724.90,435.22L722.10,435.78Q721.00,436.00 720.86,437.11L720.20,442.41Q720.00,444.00 721.51,444.54L774.49,463.46Q776.00,464.00 777.55,464.38L827.45,476.62Q829.00,477.00 830.40,476.23L939.60,415.77Q941.00,415.00 942.60,414.89L954.40,414.11Q956.00,414.00 956.51,412.48Z M877.80,396.06Q879.00,395.00 877.79,393.96L873.21,390.04Q872.00,389.00 870.40,388.93L849.60,388.07Q848.00,388.00 847.38,389.48L843.62,398.52Q843.00,400.00 841.54,400.65L788.46,424.35Q787.00,425.00 785.46,424.56L714.54,404.44Q713.00,404.00 711.61,404.79L707.39,407.21Q706.00,408.00 706.82,409.37L711.18,416.63Q712.00,418.00 713.53,418.46L774.47,436.54Q776.00,437.00 777.60,437.09L791.40,437.91Q793.00,438.00 794.46,437.34L868.54,403.66Q870.00,403.00 871.20,401.94Z M456.78,405.54Q457.00,404.00 456.18,402.68L452.85,397.36Q452.00,396.00 450.46,395.55L391.54,378.45Q390.00,378.00 388.40,378.00L376.60,378.00Q375.00,378.00 373.47,378.47L242.53,418.53Q241.00,419.00 239.40,419.00L201.60,419.00Q200.00,419.00 198.63,419.82L191.37,424.18Q190.00,425.00 189.58,426.54L187.42,434.46Q187.00,436.00 188.19,437.07L195.81,443.93Q197.00,445.00 198.60,445.00L229.40,445.00Q231.00,445.00 232.28,444.04L249.72,430.96Q251.00,430.00 252.53,429.55L378.47,392.45Q380.00,392.00 381.54,392.44L445.46,410.56Q447.00,411.00 448.60,411.00L454.44,411.00Q456.00,411.00 456.22,409.46Z M576.58,353.22Q575.00,353.00 574.54,354.53L572.46,361.47Q572.00,363.00 573.51,363.53L587.49,368.47Q589.00,369.00 587.59,369.76L577.41,375.24Q576.00,376.00 576.23,377.58L577.77,388.42Q578.00,390.00 576.47,390.46L569.53,392.54Q568.00,393.00 566.96,394.21L563.04,398.79Q562.00,400.00 562.14,401.59L562.86,409.41Q563.00,411.00 564.13,412.13L568.87,416.87Q570.00,418.00 571.47,418.62L594.53,428.38Q596.00,429.00 597.52,428.51L616.48,422.49Q618.00,422.00 619.02,420.77L621.98,417.23Q623.00,416.00 622.82,414.41L622.18,408.59Q622.00,407.00 620.50,406.45L612.50,403.55Q611.00,403.00 610.02,401.74L604.98,395.26Q604.00,394.00 602.46,393.56L591.54,390.44Q590.00,390.00 591.58,389.76L601.42,388.24Q603.00,388.00 604.38,388.80L632.62,405.20Q634.00,406.00 634.39,407.55L639.61,428.45Q640.00,430.00 641.60,430.09L655.40,430.91Q657.00,431.00 657.00,429.40L657.00,413.60Q657.00,412.00 656.34,410.54L652.66,402.46Q652.00,401.00 650.84,399.90L633.16,383.10Q632.00,382.00 630.43,381.67L595.44,374.30Q594.00,374.00 593.34,372.68L591.66,369.32Q591.00,368.00 592.44,367.68L598.44,366.35Q600.00,366.00 601.50,366.55L650.50,384.45Q652.00,385.00 653.02,386.23L670.98,407.77Q672.00,409.00 672.27,410.58L676.73,436.42Q677.00,438.00 678.49,438.59L690.71,443.48Q692.00,444.00 693.32,443.56L696.68,442.44Q698.00,442.00 697.85,440.62L695.17,415.59Q695.00,414.00 694.20,412.62L684.80,396.38Q684.00,395.00 682.87,393.87L672.13,383.13Q671.00,382.00 669.63,381.18L652.37,370.82Q651.00,370.00 649.48,369.49L619.52,359.51Q618.00,359.00 616.42,358.78Z M582.22,387.66Q582.00,387.00 582.58,386.61L584.34,385.44Q585.00,385.00 585.48,385.63L587.34,388.12Q588.00,389.00 586.92,389.22L583.68,389.86Q583.00,390.00 582.78,389.34Z M28.54,400.57Q27.00,401.00 25.87,402.13L20.13,407.87Q19.00,409.00 19.36,410.56L21.64,420.44Q22.00,422.00 23.52,422.51L44.48,429.49Q46.00,430.00 47.55,429.60L71.45,423.40Q73.00,423.00 73.96,421.72L81.04,412.28Q82.00,411.00 83.55,410.59L334.45,343.41Q336.00,343.00 337.53,343.48L517.47,399.52Q519.00,400.00 519.54,401.51L523.46,412.49Q524.00,414.00 525.05,415.20L536.95,428.80Q538.00,430.00 539.46,430.65L579.54,448.35Q581.00,449.00 581.61,450.48L637.39,586.52Q638.00,588.00 636.60,588.78L386.40,728.22Q385.00,729.00 383.40,728.94L357.60,728.06Q356.00,728.00 354.53,728.63L336.47,736.37Q335.00,737.00 334.03,738.27L322.97,752.73Q322.00,754.00 322.00,755.60L322.00,765.40Q322.00,767.00 323.00,768.25L329.00,775.75Q330.00,777.00 331.43,777.72L344.57,784.28Q346.00,785.00 347.60,785.07L368.40,785.93Q370.00,786.00 371.50,785.45L390.50,778.55Q392.00,778.00 393.13,776.87L400.87,769.13Q402.00,768.00 402.45,766.46L408.55,745.54Q409.00,744.00 410.40,743.22L585.60,645.78Q587.00,645.00 588.37,644.17L667.63,595.83Q669.00,595.00 668.38,593.52L604.62,441.48Q604.00,440.00 602.48,439.50L562.52,426.50Q561.00,426.00 559.83,424.90L545.17,411.10Q544.00,410.00 543.92,408.40L543.08,392.60Q543.00,391.00 541.53,390.37L530.47,385.63Q529.00,385.00 527.46,384.56L334.54,329.44Q333.00,329.00 331.45,329.41L83.55,395.59Q82.00,396.00 80.40,396.00L46.60,396.00Q45.00,396.00 43.46,396.43Z M697.34,289.10Q698.00,288.00 696.76,287.66L681.54,283.43Q680.00,283.00 678.47,283.48L604.53,306.52Q603.00,307.00 602.37,308.47L600.63,312.53Q600.00,314.00 600.64,315.47L615.49,349.82Q616.00,351.00 617.10,351.66L619.90,353.34Q621.00,354.00 622.25,353.71L632.44,351.36Q634.00,351.00 633.47,349.49L621.53,315.51Q621.00,314.00 622.54,313.56L693.77,293.35Q695.00,293.00 695.66,291.90Z M700.78,255.54Q701.00,254.00 699.58,253.36L691.46,249.66Q690.00,249.00 688.40,249.00L676.60,249.00Q675.00,249.00 673.71,249.94L665.29,256.06Q664.00,257.00 662.44,257.37L552.56,283.63Q551.00,284.00 551.00,285.60L551.00,292.40Q551.00,294.00 551.60,295.48L569.40,339.52Q570.00,341.00 571.60,341.09L585.40,341.91Q587.00,342.00 586.52,340.47L571.48,292.53Q571.00,291.00 572.55,290.59L683.45,261.41Q685.00,261.00 686.60,261.00L698.44,261.00Q700.00,261.00 700.22,259.46Z M613.34,240.32Q614.00,239.00 612.56,238.67L593.56,234.35Q592.00,234.00 590.57,234.72L577.43,241.28Q576.00,242.00 574.44,242.34L475.56,263.66Q474.00,264.00 474.57,265.50L498.43,328.50Q499.00,330.00 498.82,331.59L498.18,337.41Q498.00,339.00 496.46,338.56L355.54,298.44Q354.00,298.00 352.40,297.89L340.60,297.11Q339.00,297.00 337.44,297.37L189.56,332.63Q188.00,333.00 186.41,332.83L151.59,329.17Q150.00,329.00 148.55,329.68L136.45,335.32Q135.00,336.00 134.18,337.37L129.82,344.63Q129.00,346.00 129.93,347.30L133.07,351.70Q134.00,353.00 135.48,353.62L144.52,357.38Q146.00,358.00 147.60,358.00L170.40,358.00Q172.00,358.00 173.37,357.17L193.63,344.83Q195.00,344.00 196.56,343.64L343.44,309.36Q345.00,309.00 346.54,309.45L483.46,349.55Q485.00,350.00 486.57,350.30L525.43,357.70Q527.00,358.00 526.45,356.50L496.55,274.50Q496.00,273.00 497.50,272.44L518.50,264.56Q520.00,264.00 521.57,263.67L609.56,245.30Q611.00,245.00 611.66,243.68Z"/></svg>